<svg version="1.1" xmlns="http://www.w3.org/2000/svg" viewBox="-2248.690849487664 -1541.1375 7556.890849487663 2336.775"><desc>Created with Snap</desc><defs></defs><g><rect x="-2248.690849487664" y="-1541.1375" width="7556.890849487663" height="2336.775" style="" fill="#000000"></rect><g transform="matrix(19.1588,0,0,19.1588,-2037.2848,-1329.7314)"><g><path d="M78.4,66.5c-5.5,4.8-9.9,15.2-9.9,15.2s-6.9-11.4-12.9-15.3c-9.5-6.1-13.6-6.2-13.6-6.2V65c0,0,7.8,1.2,11.7,4.6   c8.2,7.1,14.8,18.5,14.8,18.5S74.4,75,80.1,70.5C88.1,64.3,95,65,95,65v-4.8C95,60.1,85.1,60.7,78.4,66.5z" style="" fill="#ffffff"></path><path d="M42,80c-6.4-3.6-17.8-4.3-17.8-4.3s8.7-10.1,10.5-17C37.5,47.9,36.2,44,36.2,44l-4.6,1.6c0,0,1.3,7.7-0.6,12.4   c-4.1,9.9-13,19.8-13,19.8s14.6,1.3,20.7,5.1c8.6,5.4,10.2,12,10.2,12l4.6-1.6C53.5,93.4,49.7,84.4,42,80z" style="" fill="#ffffff"></path><path d="M35.3,36.8c11.3-0.9,14.6-3.4,14.6-3.4l-3-3.8c0,0-6.9,3.7-12.1,3.4c-10.9-0.6-23.3-5.6-23.3-5.6s3.5,14,1.8,20.9   C10.9,58.2,5,61.8,5,61.8l3,3.8c0,0,7.5-6.5,9.1-15.1c1.3-7.1-1.7-18-1.7-18S28,37.4,35.3,36.8z" style="" fill="#ffffff"></path><path d="M37.4,17.8c7.3-1.1,16.7-7.4,16.7-7.4s-0.6,13.2,2.4,19.8c4.6,10.2,8,12.5,8,12.5l2.7-4c0,0-5.9-5.2-7.3-10.2   C56.9,18.2,57.7,5,57.7,5s-12.3,7.8-19.5,8.5c-10.2,1-15.6-3.3-15.6-3.3l-2.7,4.1C19.9,14.2,28.6,19.1,37.4,17.8z" style="" fill="#ffffff"></path><path d="M65,60.5c0,0,3.1-7.2,7.4-10.1c9-6.1,21.9-9.7,21.9-9.7s-11.5-8.9-14.5-15.4c-4.2-9.1-1.9-15.6-1.9-15.6l-4.8-1.2   c0,0-1.9,9.6,2.2,17.4c3.4,6.4,12.5,13.2,12.5,13.2S75,42.9,69.6,47.8c-8.3,7.6-9.4,11.5-9.4,11.5L65,60.5z" style="" fill="#ffffff"></path></g><desc>Created with Snap</desc><defs></defs></g><g><g transform="matrix(0.5,0,0,-0.5,0,0)"><path d="M575 856Q489 856 344 780L344 0L180 0L180 988L295 988L330 906Q509 1007 640 1007Q791 1007 877 897Q1073 1006 1228 1006Q1303 1006 1360 985Q1417 965 1452 929Q1488 894 1510 840Q1533 787 1541 727Q1550 668 1550 593L1550 0L1386 0L1386 604Q1386 622 1385 637Q1384 653 1380 680Q1376 708 1368 729Q1360 751 1344 776Q1329 801 1307 817Q1285 834 1251 845Q1217 856 1175 856Q1083 856 932 778Q946 719 946 586L946 0L782 0L782 608Q782 634 780 657Q778 681 766 720Q754 759 734 786Q714 814 672 835Q631 856 575 856ZM2345 1007Q2550 1007 2682 876Q2815 745 2815 514Q2815 269 2679 124Q2544 -20 2329 -20Q2124 -20 1994 115Q1864 251 1864 483Q1864 722 1996 864Q2129 1007 2345 1007ZM2331 867Q2208 867 2116 772Q2024 677 2024 511Q2024 346 2114 233Q2204 120 2347 120Q2479 120 2567 220Q2655 320 2655 481Q2655 573 2626 648Q2598 723 2551 770Q2505 817 2448 842Q2391 867 2331 867ZM3703 988L3873 988L3526 0L3356 0L3010 988L3190 988L3446 163L3703 988ZM4103 1232L4103 1421L4297 1421L4297 1232L4103 1232ZM4118 0L4118 988L4282 988L4282 0L4118 0ZM5067 1007Q5139 1007 5196 989Q5254 972 5292 945Q5330 918 5357 874Q5385 831 5399 790Q5414 750 5422 693Q5430 636 5432 594Q5434 552 5434 495L5434 417L4755 417Q4755 363 4779 309Q4804 256 4848 211Q4893 167 4965 139Q5038 111 5126 111Q5230 111 5351 147L5380 35Q5219 -20 5064 -20Q4955 -20 4870 9Q4786 38 4734 84Q4683 131 4650 196Q4617 261 4604 325Q4592 390 4592 462Q4592 573 4619 665Q4646 757 4692 819Q4738 882 4799 925Q4861 968 4928 987Q4996 1007 5067 1007ZM5032 865Q4944 865 4880 816Q4817 768 4788 696Q4759 624 4759 541L5275 541Q5275 865 5032 865ZM6154 1007Q6175 1007 6193 1006Q6212 1006 6229 1004Q6247 1002 6259 1001Q6272 1000 6288 997Q6305 994 6312 992Q6320 991 6337 986Q6355 982 6359 981Q6363 980 6382 974Q6402 968 6405 967L6363 842Q6229 879 6127 879Q6068 879 6022 867Q5977 855 5952 838Q5928 821 5912 798Q5897 776 5892 759Q5888 742 5888 726Q5888 685 5930 653Q5973 621 6036 601Q6100 581 6174 553Q6248 526 6311 495Q6375 465 6417 410Q6460 355 6460 283Q6460 242 6449 203Q6439 165 6409 123Q6380 81 6333 50Q6287 20 6209 0Q6131 -20 6030 -20Q5877 -20 5694 55L5740 179Q5843 141 5908 125Q5974 109 6037 109Q6281 109 6281 264Q6281 298 6257 324Q6233 350 6193 366Q6153 383 6102 400Q6052 418 5999 433Q5947 448 5896 472Q5846 497 5806 526Q5766 556 5742 603Q5718 650 5718 709Q5718 745 5729 782Q5741 820 5772 861Q5804 903 5851 934Q5898 966 5976 986Q6055 1007 6154 1007ZM7198 860Q7081 860 6934 783L6934 0L6770 0L6770 1511L6934 1511L6934 913Q7109 1006 7262 1006Q7328 1006 7380 989Q7433 972 7467 946Q7501 921 7525 880Q7550 840 7562 804Q7575 769 7581 720Q7588 671 7589 640Q7591 609 7591 567L7591 0L7423 0L7423 597Q7423 860 7198 860ZM8604 204L8604 988L8768 988L8768 0L8653 0L8618 83Q8429 -20 8269 -20Q8188 -20 8128 5Q8068 31 8035 69Q8002 107 7982 165Q7962 224 7956 277Q7951 330 7951 398L7951 988L8115 988L8115 386Q8115 127 8340 127Q8456 127 8604 204ZM9138 0L9138 1511L9302 1511L9302 941Q9431 1008 9566 1008Q9626 1008 9684 993Q9742 979 9800 942Q9859 906 9903 851Q9947 796 9974 707Q10002 618 10002 506Q10002 262 9872 121Q9743 -20 9537 -20Q9402 -20 9272 46L9252 0L9138 0ZM9510 872Q9403 872 9302 819L9302 155Q9409 109 9513 109Q9559 109 9602 119Q9645 129 9689 155Q9734 182 9767 222Q9800 262 9821 328Q9842 394 9842 477Q9842 571 9820 643Q9798 716 9764 758Q9730 800 9684 827Q9638 854 9596 863Q9554 872 9510 872Z" style="" fill="#ffffff"></path></g></g></g></svg>